<svg width="16" height="17" viewBox="0 0 16 17" fill="none" xmlns="http://www.w3.org/2000/svg">
<path d="M8 1.5C7.08075 1.5 6.17049 1.68106 5.32122 2.03284C4.47194 2.38463 3.70026 2.90024 3.05025 3.55025C1.7375 4.86301 1 6.64348 1 8.5C1 10.3565 1.7375 12.137 3.05025 13.4497C3.70026 14.0998 4.47194 14.6154 5.32122 14.9672C6.17049 15.3189 7.08075 15.5 8 15.5C9.85651 15.5 11.637 14.7625 12.9497 13.4497C14.2625 12.137 15 10.3565 15 8.5C15 7.58075 14.8189 6.67049 14.4672 5.82122C14.1154 4.97194 13.5998 4.20026 12.9497 3.55025C12.2997 2.90024 11.5281 2.38463 10.6788 2.03284C9.8295 1.68106 8.91925 1.5 8 1.5ZM10.94 11.44L7.3 9.2V5H8.35V8.64L11.5 10.53L10.94 11.44Z" fill="#91909B"/>
</svg>
