<svg width="22" height="22" viewBox="0 0 22 22" fill="none" xmlns="http://www.w3.org/2000/svg">
<path d="M1.09935 3.595C1.89935 0.135 7.10935 0.135 7.89935 3.595C8.36935 5.625 7.07935 7.345 5.95935 8.415C5.13935 9.195 3.84935 9.185 3.02935 8.415C1.91935 7.345 0.629352 5.625 1.09935 3.595Z" stroke="#31213A"/>
<path d="M14.0993 15.595C14.8993 12.135 20.1393 12.135 20.9393 15.595C21.4093 17.625 20.1193 19.345 18.9893 20.415C18.1693 21.195 16.8693 21.185 16.0493 20.415C14.9193 19.345 13.6293 17.625 14.0993 15.595Z" stroke="#31213A"/>
<path d="M11.029 3.99512H13.709C15.559 3.99512 16.419 6.28512 15.029 7.50512L7.039 14.4951C5.649 15.7051 6.509 17.9951 8.349 17.9951H11.029" stroke="#31213A" stroke-linecap="round" stroke-linejoin="round"/>
<path d="M4.51502 4.49512H4.52658" stroke="#31213A" stroke-linecap="round" stroke-linejoin="round"/>
<path d="M17.515 16.4951H17.5266" stroke="#31213A" stroke-linecap="round" stroke-linejoin="round"/>
</svg>
