<svg width="153" height="27" viewBox="0 0 153 27" fill="none" xmlns="http://www.w3.org/2000/svg">
<path d="M152.103 0V26.5073H146.597V0H152.103Z" fill="#201F23"/>
<path d="M131.148 26.8826C129.881 26.8826 128.752 26.6626 127.762 26.2225C126.771 25.7738 125.987 25.1137 125.41 24.2423C124.841 23.3621 124.557 22.2663 124.557 20.9547C124.557 19.8503 124.759 18.9227 125.164 18.172C125.569 17.4213 126.12 16.8173 126.818 16.36C127.516 15.9026 128.309 15.5575 129.196 15.3245C130.092 15.0915 131.031 14.9276 132.013 14.8327C133.168 14.7119 134.098 14.5997 134.805 14.4962C135.511 14.384 136.024 14.22 136.343 14.0043C136.661 13.7886 136.821 13.4694 136.821 13.0465V12.9689C136.821 12.1492 136.562 11.515 136.045 11.0663C135.537 10.6176 134.813 10.3932 133.874 10.3932C132.884 10.3932 132.095 10.6133 131.509 11.0533C130.924 11.4848 130.536 12.0284 130.346 12.6841L125.255 12.27C125.513 11.0619 126.021 10.0179 126.78 9.13776C127.538 8.249 128.516 7.56733 129.713 7.09276C130.919 6.60955 132.315 6.36795 133.9 6.36795C135.003 6.36795 136.058 6.49738 137.066 6.75624C138.083 7.0151 138.983 7.41633 139.767 7.95994C140.56 8.50355 141.185 9.20247 141.641 10.0567C142.098 10.9023 142.326 11.9162 142.326 13.0983V26.5073H137.105V23.7504H136.95C136.631 24.3717 136.205 24.9196 135.671 25.3942C135.137 25.8601 134.495 26.2268 133.745 26.4943C132.996 26.7532 132.13 26.8826 131.148 26.8826ZM132.724 23.0774C133.534 23.0774 134.249 22.9178 134.869 22.5985C135.49 22.2706 135.977 21.8305 136.33 21.2783C136.683 20.7261 136.86 20.1005 136.86 19.4016V17.2919C136.687 17.404 136.45 17.5076 136.149 17.6025C135.856 17.6888 135.524 17.7707 135.154 17.8484C134.783 17.9174 134.413 17.9821 134.042 18.0425C133.672 18.0943 133.336 18.1418 133.034 18.1849C132.388 18.2798 131.824 18.4308 131.341 18.6379C130.859 18.845 130.484 19.1254 130.217 19.4792C129.95 19.8244 129.816 20.2558 129.816 20.7735C129.816 21.5242 130.088 22.098 130.631 22.4949C131.182 22.8832 131.88 23.0774 132.724 23.0774Z" fill="#201F23"/>
<path d="M102.562 26.5073V0H113.003C115.011 0 116.721 0.383976 118.134 1.15193C119.547 1.91125 120.624 2.96827 121.365 4.32297C122.114 5.66904 122.489 7.2222 122.489 8.98245C122.489 10.7427 122.11 12.2959 121.352 13.6419C120.594 14.988 119.495 16.0364 118.056 16.7871C116.626 17.5378 114.895 17.9131 112.861 17.9131H106.206V13.4219H111.957C113.034 13.4219 113.921 13.2364 114.619 12.8654C115.325 12.4857 115.851 11.9637 116.195 11.2993C116.549 10.6262 116.725 9.85395 116.725 8.98245C116.725 8.10233 116.549 7.33437 116.195 6.6786C115.851 6.01419 115.325 5.50078 114.619 5.13838C113.912 4.76734 113.016 4.58183 111.931 4.58183H108.157V26.5073H102.562Z" fill="#201F23"/>
<path d="M97.2113 0V26.5073H94.911V0H97.2113Z" fill="#D8263E"/>
<path d="M81.7908 26.9215C79.9384 26.9215 78.336 26.4901 76.9833 25.6272C75.6307 24.7557 74.5839 23.552 73.843 22.0161C73.1107 20.4716 72.7445 18.694 72.7445 16.6836C72.7445 14.6817 73.1107 12.9042 73.843 11.351C74.5839 9.78925 75.6049 8.5683 76.9058 7.68817C78.2153 6.79942 79.7274 6.35504 81.4418 6.35504C82.5188 6.35504 83.5569 6.5535 84.5563 6.95042C85.5557 7.33871 86.4517 7.9384 87.2443 8.7495C88.0456 9.55197 88.6788 10.5658 89.144 11.7911C89.6093 13.0078 89.8419 14.4487 89.8419 16.1141V17.2531H74.3341V15.221H87.4899C87.4899 13.944 87.2314 12.7963 86.7145 11.7782C86.2062 10.7514 85.4954 9.94026 84.5822 9.34488C83.6775 8.7495 82.6308 8.45181 81.4418 8.45181C80.184 8.45181 79.0769 8.78833 78.1206 9.46136C77.1643 10.1344 76.4147 11.0232 75.8719 12.1276C75.3378 13.2321 75.0664 14.4401 75.0578 15.7517V16.9683C75.0578 18.5474 75.3292 19.9279 75.8719 21.1101C76.4233 22.2836 77.203 23.1939 78.211 23.8411C79.219 24.4882 80.4123 24.8118 81.7908 24.8118C82.7298 24.8118 83.5526 24.6651 84.2591 24.3717C84.9742 24.0783 85.5729 23.6857 86.0554 23.1939C86.5465 22.6934 86.917 22.1455 87.1668 21.5501L89.3508 22.262C89.0493 23.099 88.5539 23.8713 87.8646 24.5788C87.184 25.2864 86.3311 25.8559 85.3059 26.2873C84.2892 26.7101 83.1175 26.9215 81.7908 26.9215Z" fill="#D8263E"/>
<path d="M69.9757 6.62683L62.7258 26.5073H60.2704L53.0205 6.62683H55.5147L61.4077 23.4657H61.5886L67.4816 6.62683H69.9757Z" fill="#D8263E"/>
<path d="M40.6078 26.9603C39.4103 26.9603 38.3161 26.7273 37.3254 26.2614C36.3346 25.7868 35.5463 25.1052 34.9604 24.2164C34.3746 23.319 34.0816 22.2318 34.0816 20.9548C34.0816 19.9711 34.2669 19.1427 34.6373 18.4697C35.0078 17.7967 35.5333 17.2444 36.214 16.813C36.8946 16.3816 37.7001 16.0407 38.6306 15.7905C39.5611 15.5403 40.5863 15.3461 41.7063 15.2081C42.8177 15.07 43.7568 14.9492 44.5236 14.8457C45.2989 14.7421 45.8891 14.5782 46.294 14.3538C46.699 14.1295 46.9014 13.7671 46.9014 13.2666V12.8007C46.9014 11.446 46.4965 10.3803 45.6866 9.60374C44.8854 8.81853 43.7309 8.42592 42.2232 8.42592C40.7931 8.42592 39.6257 8.74087 38.7211 9.37076C37.825 10.0007 37.1961 10.7427 36.8343 11.597L34.6503 10.8074C35.0983 9.72022 35.7186 8.85304 36.5112 8.20589C37.3038 7.55011 38.1912 7.07985 39.1734 6.7951C40.1555 6.50173 41.1506 6.35504 42.1586 6.35504C42.9168 6.35504 43.7051 6.45427 44.5236 6.65273C45.3506 6.85119 46.1174 7.19634 46.8239 7.68817C47.5303 8.17138 48.1033 8.84873 48.5427 9.72022C48.9821 10.5831 49.2017 11.6789 49.2017 13.0078V26.5073H46.9014V23.3622H46.7593C46.4836 23.9489 46.0743 24.5184 45.5316 25.0706C44.9888 25.6229 44.3082 26.0759 43.4897 26.4297C42.6712 26.7834 41.7106 26.9603 40.6078 26.9603ZM40.918 24.8506C42.1414 24.8506 43.2011 24.5788 44.0971 24.0352C44.9931 23.4916 45.6823 22.7711 46.1648 21.8737C46.6559 20.9677 46.9014 19.9711 46.9014 18.8839V16.0105C46.7291 16.1745 46.4405 16.3212 46.0356 16.4506C45.6393 16.58 45.1783 16.6965 44.6528 16.8001C44.1359 16.895 43.6189 16.9769 43.102 17.046C42.5851 17.115 42.1198 17.1754 41.7063 17.2272C40.5863 17.3652 39.63 17.5809 38.8374 17.8743C38.0447 18.1677 37.4374 18.5732 37.0152 19.091C36.593 19.6001 36.382 20.2558 36.382 21.0583C36.382 22.2663 36.8127 23.2025 37.6743 23.8669C38.5358 24.5227 39.6171 24.8506 40.918 24.8506Z" fill="#D8263E"/>
<path d="M22.0922 26.5073V6.62685H24.3279V9.6814H24.4959C24.8922 8.68048 25.5814 7.8737 26.5636 7.26106C27.5544 6.6398 28.6744 6.32916 29.9236 6.32916C30.1131 6.32916 30.3242 6.33348 30.5568 6.34211C30.7895 6.35074 30.9833 6.35936 31.1384 6.36799V8.71068C31.035 8.69342 30.8541 8.66754 30.5956 8.63302C30.3371 8.59851 30.0571 8.58125 29.7556 8.58125C28.7218 8.58125 27.7999 8.80128 26.99 9.24134C26.1888 9.67277 25.5556 10.2725 25.0903 11.0404C24.6251 11.8084 24.3925 12.6842 24.3925 13.6679V26.5073H22.0922Z" fill="#D8263E"/>
<path d="M0 2.17443V0H19.1909V2.17443H10.8038V26.5073H8.38714V2.17443H0Z" fill="#D8263E"/>
</svg>
