<svg width="16" height="16" viewBox="0 0 16 16" fill="none" xmlns="http://www.w3.org/2000/svg">
<g clip-path="url(#clip0_2_5891)">
<path d="M13.3333 5.79332V2.66666H10.2066L7.99996 0.459991L5.79329 2.66666H2.66663V5.79332L0.459961 7.99999L2.66663 10.2067V13.3333H5.79329L7.99996 15.54L10.2066 13.3333H13.3333V10.2067L15.54 7.99999L13.3333 5.79332ZM7.99996 12C5.79329 12 3.99996 10.2067 3.99996 7.99999C3.99996 5.79333 5.79329 3.99999 7.99996 3.99999C10.2066 3.99999 12 5.79333 12 7.99999C12 10.2067 10.2066 12 7.99996 12ZM7.99996 5.33332C6.52663 5.33332 5.33329 6.52666 5.33329 7.99999C5.33329 9.47333 6.52663 10.6667 7.99996 10.6667C9.4733 10.6667 10.6666 9.47333 10.6666 7.99999C10.6666 6.52666 9.4733 5.33332 7.99996 5.33332Z" fill="#323232"/>
</g>
<defs>
<clipPath id="clip0_2_5891">
<rect width="16" height="16" fill="white"/>
</clipPath>
</defs>
</svg>
