<svg width="16" height="17" viewBox="0 0 16 17" fill="none" xmlns="http://www.w3.org/2000/svg">
<path d="M11.2 12.9V14.5H0V12.9C0 12.9 0 9.70004 5.6 9.70004C11.2 9.70004 11.2 12.9 11.2 12.9ZM8.4 5.30004C8.4 4.74625 8.23578 4.2049 7.92812 3.74445C7.62045 3.28399 7.18315 2.9251 6.67151 2.71318C6.15988 2.50125 5.59689 2.4458 5.05375 2.55384C4.5106 2.66188 4.01169 2.92856 3.6201 3.32014C3.22851 3.71173 2.96184 4.21064 2.8538 4.75379C2.74576 5.29694 2.80121 5.85992 3.01314 6.37156C3.22506 6.88319 3.58395 7.32049 4.0444 7.62816C4.50486 7.93582 5.04621 8.10004 5.6 8.10004C6.34261 8.10004 7.0548 7.80504 7.5799 7.27994C8.105 6.75484 8.4 6.04265 8.4 5.30004ZM11.152 9.70004C11.6438 10.0806 12.0462 10.5644 12.3309 11.1172C12.6157 11.6701 12.7758 12.2786 12.8 12.9V14.5H16V12.9C16 12.9 16 9.99604 11.152 9.70004ZM10.4 2.50004C9.84935 2.49698 9.31081 2.66161 8.856 2.97204C9.34195 3.65103 9.60324 4.46507 9.60324 5.30004C9.60324 6.13501 9.34195 6.94905 8.856 7.62804C9.31081 7.93848 9.84935 8.10311 10.4 8.10004C11.1426 8.10004 11.8548 7.80504 12.3799 7.27994C12.905 6.75484 13.2 6.04265 13.2 5.30004C13.2 4.55744 12.905 3.84525 12.3799 3.32014C11.8548 2.79504 11.1426 2.50004 10.4 2.50004Z" fill="#91909B"/>
</svg>
